<svg width="219" height="37" viewBox="0 0 219 37" fill="none" xmlns="http://www.w3.org/2000/svg">
<path d="M24.2209 12.375C23.9822 11.5455 23.647 10.8125 23.2152 10.1761C22.7834 9.52841 22.255 8.98295 21.63 8.53977C21.0163 8.08523 20.3118 7.73864 19.5163 7.5C18.7322 7.26136 17.8629 7.14205 16.9084 7.14205C15.1243 7.14205 13.5561 7.58523 12.2038 8.47159C10.8629 9.35795 9.81747 10.6477 9.06747 12.3409C8.31747 14.0227 7.94247 16.0795 7.94247 18.5114C7.94247 20.9432 8.31179 23.0114 9.05043 24.7159C9.78906 26.4205 10.8345 27.7216 12.1868 28.6193C13.5391 29.5057 15.1357 29.9489 16.9766 29.9489C18.647 29.9489 20.0732 29.6534 21.255 29.0625C22.4482 28.4602 23.3572 27.6136 23.9822 26.5227C24.6186 25.4318 24.9368 24.142 24.9368 22.6534L26.4368 22.875H17.4368V17.3182H32.0447V21.7159C32.0447 24.7841 31.397 27.4205 30.1016 29.625C28.8061 31.8182 27.022 33.5114 24.7493 34.7045C22.4766 35.8864 19.8743 36.4773 16.9425 36.4773C13.6697 36.4773 10.7947 35.7557 8.31747 34.3125C5.8402 32.858 3.90838 30.7955 2.52202 28.125C1.14702 25.4432 0.459517 22.2614 0.459517 18.5795C0.459517 15.75 0.868608 13.2273 1.68679 11.0114C2.51634 8.78409 3.67543 6.89773 5.16406 5.35227C6.6527 3.80682 8.38565 2.63068 10.3629 1.82386C12.3402 1.01704 14.4822 0.613635 16.7891 0.613635C18.7663 0.613635 20.6072 0.903408 22.3118 1.48295C24.0163 2.05114 25.5277 2.85795 26.8459 3.90341C28.1754 4.94886 29.2607 6.19318 30.1016 7.63636C30.9425 9.06818 31.4822 10.6477 31.7209 12.375H24.2209ZM44.7138 1.09091V36H37.4524V1.09091H44.7138ZM67.3203 24.8523V9.81818H74.5817V36H67.6101V31.2443H67.3374C66.7464 32.7784 65.7635 34.0114 64.3885 34.9432C63.0249 35.875 61.3601 36.3409 59.3942 36.3409C57.6442 36.3409 56.1044 35.9432 54.7749 35.1477C53.4453 34.3523 52.4055 33.2216 51.6555 31.7557C50.9169 30.2898 50.5419 28.5341 50.5305 26.4886V9.81818H57.7919V25.1932C57.8033 26.7386 58.218 27.9602 59.0362 28.858C59.8544 29.7557 60.951 30.2045 62.326 30.2045C63.201 30.2045 64.0192 30.0057 64.7805 29.608C65.5419 29.1989 66.1555 28.5966 66.6214 27.8011C67.0987 27.0057 67.3317 26.0227 67.3203 24.8523ZM80.3899 36V9.81818H87.4297V14.3864H87.7024C88.1797 12.7614 88.9808 11.5341 90.1058 10.7045C91.2308 9.86364 92.5263 9.44318 93.9922 9.44318C94.3558 9.44318 94.7479 9.46591 95.1683 9.51136C95.5888 9.55682 95.9581 9.61932 96.2763 9.69886V16.142C95.9354 16.0398 95.4638 15.9489 94.8615 15.8693C94.2592 15.7898 93.7081 15.75 93.2081 15.75C92.1399 15.75 91.1854 15.983 90.3445 16.4489C89.5149 16.9034 88.8558 17.5398 88.3672 18.358C87.8899 19.1761 87.6513 20.1193 87.6513 21.1875V36H80.3899ZM123.315 12.375C123.076 11.5455 122.741 10.8125 122.309 10.1761C121.877 9.52841 121.349 8.98295 120.724 8.53977C120.11 8.08523 119.406 7.73864 118.61 7.5C117.826 7.26136 116.957 7.14205 116.002 7.14205C114.218 7.14205 112.65 7.58523 111.298 8.47159C109.957 9.35795 108.911 10.6477 108.161 12.3409C107.411 14.0227 107.036 16.0795 107.036 18.5114C107.036 20.9432 107.406 23.0114 108.144 24.7159C108.883 26.4205 109.928 27.7216 111.281 28.6193C112.633 29.5057 114.229 29.9489 116.07 29.9489C117.741 29.9489 119.167 29.6534 120.349 29.0625C121.542 28.4602 122.451 27.6136 123.076 26.5227C123.712 25.4318 124.031 24.142 124.031 22.6534L125.531 22.875H116.531V17.3182H131.138V21.7159C131.138 24.7841 130.491 27.4205 129.195 29.625C127.9 31.8182 126.116 33.5114 123.843 34.7045C121.57 35.8864 118.968 36.4773 116.036 36.4773C112.763 36.4773 109.888 35.7557 107.411 34.3125C104.934 32.858 103.002 30.7955 101.616 28.125C100.241 25.4432 99.5533 22.2614 99.5533 18.5795C99.5533 15.75 99.9624 13.2273 100.781 11.0114C101.61 8.78409 102.769 6.89773 104.258 5.35227C105.746 3.80682 107.479 2.63068 109.457 1.82386C111.434 1.01704 113.576 0.613635 115.883 0.613635C117.86 0.613635 119.701 0.903408 121.406 1.48295C123.11 2.05114 124.621 2.85795 125.94 3.90341C127.269 4.94886 128.354 6.19318 129.195 7.63636C130.036 9.06818 130.576 10.6477 130.815 12.375H123.315ZM148.478 36.5114C145.785 36.5114 143.467 35.9659 141.523 34.875C139.592 33.7727 138.103 32.2159 137.058 30.2045C136.012 28.1818 135.489 25.7898 135.489 23.0284C135.489 20.3352 136.012 17.9716 137.058 15.9375C138.103 13.9034 139.575 12.3182 141.472 11.1818C143.381 10.0455 145.62 9.47727 148.188 9.47727C149.915 9.47727 151.523 9.75568 153.012 10.3125C154.512 10.858 155.819 11.6818 156.933 12.7841C158.058 13.8864 158.933 15.2727 159.558 16.9432C160.183 18.6023 160.495 20.5455 160.495 22.7727V24.767H138.387V20.267H153.66C153.66 19.2216 153.433 18.2955 152.978 17.4886C152.523 16.6818 151.893 16.0511 151.086 15.5966C150.29 15.1307 149.364 14.8977 148.308 14.8977C147.205 14.8977 146.228 15.1534 145.376 15.6648C144.535 16.1648 143.876 16.8409 143.398 17.6932C142.921 18.5341 142.677 19.4716 142.665 20.5057V24.7841C142.665 26.0795 142.904 27.1989 143.381 28.142C143.87 29.0852 144.558 29.8125 145.444 30.3239C146.33 30.8352 147.381 31.0909 148.597 31.0909C149.404 31.0909 150.143 30.9773 150.813 30.75C151.484 30.5227 152.058 30.1818 152.535 29.7273C153.012 29.2727 153.376 28.7159 153.626 28.0568L160.342 28.5C160.001 30.1136 159.302 31.5227 158.245 32.7273C157.2 33.9205 155.847 34.8523 154.188 35.5227C152.54 36.1818 150.637 36.5114 148.478 36.5114ZM177.165 36.5114C174.472 36.5114 172.154 35.9659 170.211 34.875C168.279 33.7727 166.79 32.2159 165.745 30.2045C164.7 28.1818 164.177 25.7898 164.177 23.0284C164.177 20.3352 164.7 17.9716 165.745 15.9375C166.79 13.9034 168.262 12.3182 170.16 11.1818C172.069 10.0455 174.308 9.47727 176.876 9.47727C178.603 9.47727 180.211 9.75568 181.7 10.3125C183.2 10.858 184.506 11.6818 185.62 12.7841C186.745 13.8864 187.62 15.2727 188.245 16.9432C188.87 18.6023 189.183 20.5455 189.183 22.7727V24.767H167.075V20.267H182.347C182.347 19.2216 182.12 18.2955 181.665 17.4886C181.211 16.6818 180.58 16.0511 179.773 15.5966C178.978 15.1307 178.052 14.8977 176.995 14.8977C175.893 14.8977 174.915 15.1534 174.063 15.6648C173.222 16.1648 172.563 16.8409 172.086 17.6932C171.609 18.5341 171.364 19.4716 171.353 20.5057V24.7841C171.353 26.0795 171.592 27.1989 172.069 28.142C172.558 29.0852 173.245 29.8125 174.131 30.3239C175.018 30.8352 176.069 31.0909 177.285 31.0909C178.092 31.0909 178.83 30.9773 179.501 30.75C180.171 30.5227 180.745 30.1818 181.222 29.7273C181.7 29.2727 182.063 28.7159 182.313 28.0568L189.029 28.5C188.688 30.1136 187.989 31.5227 186.933 32.7273C185.887 33.9205 184.535 34.8523 182.876 35.5227C181.228 36.1818 179.325 36.5114 177.165 36.5114ZM200.501 28.4659L200.518 19.7557H201.575L209.961 9.81818H218.296L207.029 22.9773H205.308L200.501 28.4659ZM193.921 36V1.09091H201.183V36H193.921ZM210.285 36L202.58 24.5966L207.421 19.4659L218.79 36H210.285Z" fill="black"/>
</svg>
