<svg width="133" height="133" viewBox="0 0 133 133" fill="none" xmlns="http://www.w3.org/2000/svg">
<g clip-path="url(#clip0_3_2)">
<path d="M133 27.4674V105.533C133 112.732 127.189 118.544 119.989 118.544H13.0109C5.81148 118.544 0 112.732 0 105.533V27.4674C0 27.2362 0 27.0047 0.028834 26.7735C0.375881 20.1235 5.66679 14.8324 12.3168 14.4856C12.548 14.4567 12.7794 14.4567 13.0106 14.4567H119.989C120.22 14.4567 120.48 14.4567 120.712 14.4856C127.333 14.8326 132.624 20.1235 132.971 26.7447C133 26.9759 133 27.2362 133 27.4674Z" fill="#E6F3FF"/>
<path d="M120.712 14.4853C120.48 14.4565 120.221 14.4565 119.989 14.4565H66.5V118.544H119.989C127.189 118.544 133 112.732 133 105.533V27.4674C133 27.2362 133 26.9759 132.971 26.7444C132.624 20.1235 127.333 14.8324 120.712 14.4853Z" fill="white"/>
<path d="M132.971 26.7447C132.624 20.1235 127.333 14.8326 120.712 14.4856C99.4617 35.7357 87.5283 47.6693 66.5 68.6973C58.5229 60.7155 20.1604 22.3289 12.317 14.4853C5.66705 14.8324 0.375881 20.1233 0.0290938 26.7733C0 27.0047 0 27.2362 0 27.4674V105.533C0 112.732 5.81148 118.544 13.0109 118.544H17.3479V44.0923L60.3706 87.0862C62.0476 88.792 64.2738 89.6306 66.5003 89.6306C68.7265 89.6306 70.9529 88.792 72.6299 87.0862L115.653 44.0635V118.544H119.99C127.189 118.544 133.001 112.732 133.001 105.533V27.4674C133 27.2362 133 26.9759 132.971 26.7447Z" fill="#FF4B26"/>
<path d="M72.6294 87.0862L115.652 44.0635V118.544H119.989C127.189 118.544 133 112.732 133 105.533V27.4674C133 27.2362 133 26.9759 132.971 26.7444C132.624 20.1233 127.333 14.8324 120.712 14.4853C99.4619 35.7357 87.5283 47.6693 66.5 68.6973V89.6303C68.7262 89.6303 70.9526 88.792 72.6294 87.0862Z" fill="#D93F21"/>
</g>
<defs>
<clipPath id="clip0_3_2">
<rect width="133" height="133" fill="white"/>
</clipPath>
</defs>
</svg>
