<svg width="1394" height="63" viewBox="0 0 1394 63" fill="none" xmlns="http://www.w3.org/2000/svg">
<path d="M36.2209 22.375C35.9822 21.5455 35.647 20.8125 35.2152 20.1761C34.7834 19.5284 34.255 18.983 33.63 18.5398C33.0163 18.0852 32.3118 17.7386 31.5163 17.5C30.7322 17.2614 29.8629 17.142 28.9084 17.142C27.1243 17.142 25.5561 17.5852 24.2038 18.4716C22.8629 19.358 21.8175 20.6477 21.0675 22.3409C20.3175 24.0227 19.9425 26.0795 19.9425 28.5114C19.9425 30.9432 20.3118 33.0114 21.0504 34.7159C21.7891 36.4205 22.8345 37.7216 24.1868 38.6193C25.5391 39.5057 27.1357 39.9489 28.9766 39.9489C30.647 39.9489 32.0732 39.6534 33.255 39.0625C34.4482 38.4602 35.3572 37.6136 35.9822 36.5227C36.6186 35.4318 36.9368 34.142 36.9368 32.6534L38.4368 32.875H29.4368V27.3182H44.0447V31.7159C44.0447 34.7841 43.397 37.4205 42.1016 39.625C40.8061 41.8182 39.022 43.5114 36.7493 44.7045C34.4766 45.8864 31.8743 46.4773 28.9425 46.4773C25.6697 46.4773 22.7947 45.7557 20.3175 44.3125C17.8402 42.858 15.9084 40.7955 14.522 38.125C13.147 35.4432 12.4595 32.2614 12.4595 28.5795C12.4595 25.75 12.8686 23.2273 13.6868 21.0114C14.5163 18.7841 15.6754 16.8977 17.1641 15.3523C18.6527 13.8068 20.3857 12.6307 22.3629 11.8239C24.3402 11.017 26.4822 10.6136 28.7891 10.6136C30.7663 10.6136 32.6072 10.9034 34.3118 11.483C36.0163 12.0511 37.5277 12.858 38.8459 13.9034C40.1754 14.9489 41.2607 16.1932 42.1016 17.6364C42.9425 19.0682 43.4822 20.6477 43.7209 22.375H36.2209ZM56.7138 11.0909V46H49.4524V11.0909H56.7138ZM79.3203 34.8523V19.8182H86.5817V46H79.6101V41.2443H79.3374C78.7464 42.7784 77.7635 44.0114 76.3885 44.9432C75.0249 45.875 73.3601 46.3409 71.3942 46.3409C69.6442 46.3409 68.1044 45.9432 66.7749 45.1477C65.4453 44.3523 64.4055 43.2216 63.6555 41.7557C62.9169 40.2898 62.5419 38.5341 62.5305 36.4886V19.8182H69.7919V35.1932C69.8033 36.7386 70.218 37.9602 71.0362 38.858C71.8544 39.7557 72.951 40.2045 74.326 40.2045C75.201 40.2045 76.0192 40.0057 76.7805 39.608C77.5419 39.1989 78.1555 38.5966 78.6214 37.8011C79.0987 37.0057 79.3317 36.0227 79.3203 34.8523ZM92.3899 46V19.8182H99.4297V24.3864H99.7024C100.18 22.7614 100.981 21.5341 102.106 20.7045C103.231 19.8636 104.526 19.4432 105.992 19.4432C106.356 19.4432 106.748 19.4659 107.168 19.5114C107.589 19.5568 107.958 19.6193 108.276 19.6989V26.142C107.935 26.0398 107.464 25.9489 106.862 25.8693C106.259 25.7898 105.708 25.75 105.208 25.75C104.14 25.75 103.185 25.983 102.344 26.4489C101.515 26.9034 100.856 27.5398 100.367 28.358C99.8899 29.1761 99.6513 30.1193 99.6513 31.1875V46H92.3899ZM135.315 22.375C135.076 21.5455 134.741 20.8125 134.309 20.1761C133.877 19.5284 133.349 18.983 132.724 18.5398C132.11 18.0852 131.406 17.7386 130.61 17.5C129.826 17.2614 128.957 17.142 128.002 17.142C126.218 17.142 124.65 17.5852 123.298 18.4716C121.957 19.358 120.911 20.6477 120.161 22.3409C119.411 24.0227 119.036 26.0795 119.036 28.5114C119.036 30.9432 119.406 33.0114 120.144 34.7159C120.883 36.4205 121.928 37.7216 123.281 38.6193C124.633 39.5057 126.229 39.9489 128.07 39.9489C129.741 39.9489 131.167 39.6534 132.349 39.0625C133.542 38.4602 134.451 37.6136 135.076 36.5227C135.712 35.4318 136.031 34.142 136.031 32.6534L137.531 32.875H128.531V27.3182H143.138V31.7159C143.138 34.7841 142.491 37.4205 141.195 39.625C139.9 41.8182 138.116 43.5114 135.843 44.7045C133.57 45.8864 130.968 46.4773 128.036 46.4773C124.763 46.4773 121.888 45.7557 119.411 44.3125C116.934 42.858 115.002 40.7955 113.616 38.125C112.241 35.4432 111.553 32.2614 111.553 28.5795C111.553 25.75 111.962 23.2273 112.781 21.0114C113.61 18.7841 114.769 16.8977 116.258 15.3523C117.746 13.8068 119.479 12.6307 121.457 11.8239C123.434 11.017 125.576 10.6136 127.883 10.6136C129.86 10.6136 131.701 10.9034 133.406 11.483C135.11 12.0511 136.621 12.858 137.94 13.9034C139.269 14.9489 140.354 16.1932 141.195 17.6364C142.036 19.0682 142.576 20.6477 142.815 22.375H135.315ZM160.478 46.5114C157.785 46.5114 155.467 45.9659 153.523 44.875C151.592 43.7727 150.103 42.2159 149.058 40.2045C148.012 38.1818 147.489 35.7898 147.489 33.0284C147.489 30.3352 148.012 27.9716 149.058 25.9375C150.103 23.9034 151.575 22.3182 153.472 21.1818C155.381 20.0455 157.62 19.4773 160.188 19.4773C161.915 19.4773 163.523 19.7557 165.012 20.3125C166.512 20.858 167.819 21.6818 168.933 22.7841C170.058 23.8864 170.933 25.2727 171.558 26.9432C172.183 28.6023 172.495 30.5455 172.495 32.7727V34.767H150.387V30.267H165.66C165.66 29.2216 165.433 28.2955 164.978 27.4886C164.523 26.6818 163.893 26.0511 163.086 25.5966C162.29 25.1307 161.364 24.8977 160.308 24.8977C159.205 24.8977 158.228 25.1534 157.376 25.6648C156.535 26.1648 155.876 26.8409 155.398 27.6932C154.921 28.5341 154.677 29.4716 154.665 30.5057V34.7841C154.665 36.0795 154.904 37.1989 155.381 38.142C155.87 39.0852 156.558 39.8125 157.444 40.3239C158.33 40.8352 159.381 41.0909 160.597 41.0909C161.404 41.0909 162.143 40.9773 162.813 40.75C163.484 40.5227 164.058 40.1818 164.535 39.7273C165.012 39.2727 165.376 38.7159 165.626 38.0568L172.342 38.5C172.001 40.1136 171.302 41.5227 170.245 42.7273C169.2 43.9205 167.847 44.8523 166.188 45.5227C164.54 46.1818 162.637 46.5114 160.478 46.5114ZM189.165 46.5114C186.472 46.5114 184.154 45.9659 182.211 44.875C180.279 43.7727 178.79 42.2159 177.745 40.2045C176.7 38.1818 176.177 35.7898 176.177 33.0284C176.177 30.3352 176.7 27.9716 177.745 25.9375C178.79 23.9034 180.262 22.3182 182.16 21.1818C184.069 20.0455 186.308 19.4773 188.876 19.4773C190.603 19.4773 192.211 19.7557 193.7 20.3125C195.2 20.858 196.506 21.6818 197.62 22.7841C198.745 23.8864 199.62 25.2727 200.245 26.9432C200.87 28.6023 201.183 30.5455 201.183 32.7727V34.767H179.075V30.267H194.347C194.347 29.2216 194.12 28.2955 193.665 27.4886C193.211 26.6818 192.58 26.0511 191.773 25.5966C190.978 25.1307 190.052 24.8977 188.995 24.8977C187.893 24.8977 186.915 25.1534 186.063 25.6648C185.222 26.1648 184.563 26.8409 184.086 27.6932C183.609 28.5341 183.364 29.4716 183.353 30.5057V34.7841C183.353 36.0795 183.592 37.1989 184.069 38.142C184.558 39.0852 185.245 39.8125 186.131 40.3239C187.018 40.8352 188.069 41.0909 189.285 41.0909C190.092 41.0909 190.83 40.9773 191.501 40.75C192.171 40.5227 192.745 40.1818 193.222 39.7273C193.7 39.2727 194.063 38.7159 194.313 38.0568L201.029 38.5C200.688 40.1136 199.989 41.5227 198.933 42.7273C197.887 43.9205 196.535 44.8523 194.876 45.5227C193.228 46.1818 191.325 46.5114 189.165 46.5114ZM212.501 38.4659L212.518 29.7557H213.575L221.961 19.8182H230.296L219.029 32.9773H217.308L212.501 38.4659ZM205.921 46V11.0909H213.183V46H205.921ZM222.285 46L214.58 34.5966L219.421 29.4659L230.79 46H222.285Z" fill="black"/>
<path d="M741.839 41.4119C740.447 41.4119 739.207 41.1705 738.118 40.6875C737.029 40.1951 736.167 39.4706 735.533 38.5142C734.908 37.5483 734.595 36.3456 734.595 34.9062C734.595 33.6941 734.818 32.6761 735.263 31.8523C735.708 31.0284 736.314 30.3655 737.081 29.8636C737.848 29.3617 738.719 28.983 739.695 28.7273C740.679 28.4716 741.712 28.2917 742.791 28.1875C744.06 28.0549 745.083 27.9318 745.859 27.8182C746.636 27.6951 747.199 27.5152 747.55 27.2784C747.9 27.0417 748.075 26.6913 748.075 26.2273V26.142C748.075 25.2424 747.791 24.5464 747.223 24.054C746.664 23.5616 745.869 23.3153 744.837 23.3153C743.748 23.3153 742.881 23.5568 742.237 24.0398C741.593 24.5133 741.167 25.1098 740.959 25.8295L735.362 25.375C735.646 24.0492 736.205 22.9034 737.038 21.9375C737.872 20.9621 738.946 20.214 740.263 19.6932C741.589 19.1629 743.123 18.8977 744.865 18.8977C746.077 18.8977 747.237 19.0398 748.345 19.3239C749.463 19.608 750.452 20.0483 751.314 20.6449C752.185 21.2415 752.872 22.0085 753.374 22.946C753.875 23.8741 754.126 24.9867 754.126 26.2841V41H748.388V37.9744H748.217C747.867 38.6562 747.398 39.2576 746.811 39.7784C746.224 40.2898 745.518 40.6922 744.695 40.9858C743.871 41.2699 742.919 41.4119 741.839 41.4119ZM743.572 37.2358C744.463 37.2358 745.249 37.0606 745.93 36.7102C746.612 36.3504 747.147 35.8674 747.536 35.2614C747.924 34.6553 748.118 33.9687 748.118 33.2017V30.8864C747.929 31.0095 747.668 31.1231 747.337 31.2273C747.015 31.322 746.65 31.4119 746.243 31.4972C745.836 31.5729 745.429 31.6439 745.021 31.7102C744.614 31.767 744.245 31.8191 743.913 31.8665C743.203 31.9706 742.583 32.1364 742.053 32.3636C741.522 32.5909 741.11 32.8987 740.817 33.2869C740.523 33.6657 740.376 34.1392 740.376 34.7074C740.376 35.5312 740.675 36.161 741.271 36.5966C741.877 37.0227 742.644 37.2358 743.572 37.2358ZM758.935 41V11.9091H764.986V22.8466H765.17C765.436 22.2595 765.819 21.6629 766.321 21.0568C766.832 20.4413 767.495 19.9299 768.31 19.5227C769.134 19.1061 770.156 18.8977 771.378 18.8977C772.969 18.8977 774.437 19.3144 775.781 20.1477C777.126 20.9716 778.201 22.2169 779.006 23.8835C779.811 25.5407 780.213 27.6193 780.213 30.1193C780.213 32.553 779.82 34.608 779.034 36.2841C778.258 37.9508 777.197 39.215 775.852 40.0767C774.517 40.929 773.021 41.3551 771.364 41.3551C770.189 41.3551 769.19 41.161 768.366 40.7727C767.552 40.3845 766.884 39.8968 766.364 39.3097C765.843 38.7131 765.445 38.1117 765.17 37.5057H764.901V41H758.935ZM764.858 30.0909C764.858 31.3883 765.038 32.5199 765.398 33.4858C765.758 34.4517 766.278 35.2045 766.96 35.7443C767.642 36.2746 768.471 36.5398 769.446 36.5398C770.431 36.5398 771.264 36.2699 771.946 35.7301C772.628 35.1809 773.144 34.4233 773.494 33.4574C773.854 32.482 774.034 31.3598 774.034 30.0909C774.034 28.8314 773.859 27.7235 773.509 26.767C773.158 25.8106 772.642 25.0625 771.96 24.5227C771.278 23.983 770.44 23.7131 769.446 23.7131C768.461 23.7131 767.628 23.9735 766.946 24.4943C766.274 25.0152 765.758 25.7538 765.398 26.7102C765.038 27.6667 764.858 28.7936 764.858 30.0909ZM794.109 41.4261C791.902 41.4261 789.994 40.9574 788.384 40.0199C786.784 39.0729 785.548 37.7566 784.677 36.071C783.806 34.3759 783.37 32.411 783.37 30.1761C783.37 27.9223 783.806 25.9527 784.677 24.267C785.548 22.572 786.784 21.2557 788.384 20.3182C789.994 19.3712 791.902 18.8977 794.109 18.8977C796.315 18.8977 798.219 19.3712 799.819 20.3182C801.429 21.2557 802.669 22.572 803.54 24.267C804.412 25.9527 804.847 27.9223 804.847 30.1761C804.847 32.411 804.412 34.3759 803.54 36.071C802.669 37.7566 801.429 39.0729 799.819 40.0199C798.219 40.9574 796.315 41.4261 794.109 41.4261ZM794.137 36.7386C795.141 36.7386 795.979 36.4545 796.651 35.8864C797.324 35.3087 797.83 34.5227 798.171 33.5284C798.522 32.5341 798.697 31.4025 798.697 30.1335C798.697 28.8646 798.522 27.733 798.171 26.7386C797.83 25.7443 797.324 24.9583 796.651 24.3807C795.979 23.803 795.141 23.5142 794.137 23.5142C793.124 23.5142 792.272 23.803 791.58 24.3807C790.898 24.9583 790.382 25.7443 790.032 26.7386C789.691 27.733 789.521 28.8646 789.521 30.1335C789.521 31.4025 789.691 32.5341 790.032 33.5284C790.382 34.5227 790.898 35.3087 791.58 35.8864C792.272 36.4545 793.124 36.7386 794.137 36.7386ZM822.773 31.7102V19.1818H828.825V41H823.015V37.0369H822.788C822.295 38.3153 821.476 39.3428 820.33 40.1193C819.194 40.8958 817.807 41.2841 816.168 41.2841C814.71 41.2841 813.427 40.9527 812.319 40.2898C811.211 39.6269 810.344 38.6847 809.719 37.4631C809.104 36.2415 808.791 34.7784 808.782 33.0739V19.1818H814.833V31.9943C814.843 33.2822 815.188 34.3002 815.87 35.0483C816.552 35.7964 817.466 36.1705 818.612 36.1705C819.341 36.1705 820.022 36.0047 820.657 35.6733C821.291 35.3324 821.803 34.8305 822.191 34.1676C822.589 33.5047 822.783 32.6856 822.773 31.7102ZM845.27 19.1818V23.7273H832.131V19.1818H845.27ZM835.114 13.9545H841.165V34.2955C841.165 34.8542 841.25 35.2898 841.42 35.6023C841.591 35.9053 841.828 36.1184 842.131 36.2415C842.443 36.3646 842.803 36.4261 843.21 36.4261C843.494 36.4261 843.778 36.4025 844.062 36.3551C844.347 36.2983 844.564 36.2557 844.716 36.2273L845.668 40.7301C845.365 40.8248 844.938 40.9337 844.389 41.0568C843.84 41.1894 843.172 41.2699 842.386 41.2983C840.928 41.3551 839.65 41.161 838.551 40.7159C837.462 40.2708 836.615 39.5795 836.009 38.642C835.402 37.7045 835.104 36.5208 835.114 35.0909V13.9545Z" fill="#5D5FEF"/>
<path d="M1003.06 43H992.743V13.9091H1003.14C1006.07 13.9091 1008.59 14.4915 1010.7 15.6562C1012.81 16.8116 1014.43 18.4735 1015.57 20.642C1016.72 22.8106 1017.29 25.4053 1017.29 28.4261C1017.29 31.4564 1016.72 34.0606 1015.57 36.2386C1014.43 38.4167 1012.8 40.0881 1010.67 41.2528C1008.55 42.4176 1006.01 43 1003.06 43ZM998.894 37.7301H1002.8C1004.62 37.7301 1006.15 37.4081 1007.39 36.7642C1008.64 36.1108 1009.58 35.1023 1010.2 33.7386C1010.84 32.3655 1011.15 30.5947 1011.15 28.4261C1011.15 26.2765 1010.84 24.5199 1010.2 23.1562C1009.58 21.7926 1008.64 20.7888 1007.4 20.1449C1006.16 19.5009 1004.63 19.179 1002.81 19.179H998.894V37.7301ZM1031.59 43.4261C1029.38 43.4261 1027.47 42.9574 1025.86 42.0199C1024.26 41.0729 1023.03 39.7566 1022.16 38.071C1021.29 36.3759 1020.85 34.411 1020.85 32.1761C1020.85 29.9223 1021.29 27.9527 1022.16 26.267C1023.03 24.572 1024.26 23.2557 1025.86 22.3182C1027.47 21.3712 1029.38 20.8977 1031.59 20.8977C1033.8 20.8977 1035.7 21.3712 1037.3 22.3182C1038.91 23.2557 1040.15 24.572 1041.02 26.267C1041.89 27.9527 1042.33 29.9223 1042.33 32.1761C1042.33 34.411 1041.89 36.3759 1041.02 38.071C1040.15 39.7566 1038.91 41.0729 1037.3 42.0199C1035.7 42.9574 1033.8 43.4261 1031.59 43.4261ZM1031.62 38.7386C1032.62 38.7386 1033.46 38.4545 1034.13 37.8864C1034.8 37.3087 1035.31 36.5227 1035.65 35.5284C1036 34.5341 1036.18 33.4025 1036.18 32.1335C1036.18 30.8646 1036 29.733 1035.65 28.7386C1035.31 27.7443 1034.8 26.9583 1034.13 26.3807C1033.46 25.803 1032.62 25.5142 1031.62 25.5142C1030.6 25.5142 1029.75 25.803 1029.06 26.3807C1028.38 26.9583 1027.86 27.7443 1027.51 28.7386C1027.17 29.733 1027 30.8646 1027 32.1335C1027 33.4025 1027.17 34.5341 1027.51 35.5284C1027.86 36.5227 1028.38 37.3087 1029.06 37.8864C1029.75 38.4545 1030.6 38.7386 1031.62 38.7386ZM1056.12 43.4261C1053.89 43.4261 1051.96 42.9527 1050.35 42.0057C1048.75 41.0492 1047.52 39.7235 1046.66 38.0284C1045.81 36.3333 1045.38 34.3826 1045.38 32.1761C1045.38 29.9413 1045.81 27.9811 1046.67 26.2955C1047.55 24.6004 1048.78 23.2794 1050.38 22.3324C1051.98 21.3759 1053.89 20.8977 1056.09 20.8977C1058 20.8977 1059.66 21.2434 1061.09 21.9347C1062.52 22.6259 1063.65 23.5966 1064.49 24.8466C1065.32 26.0966 1065.78 27.5644 1065.86 29.25H1060.15C1059.99 28.161 1059.57 27.285 1058.88 26.6222C1058.19 25.9498 1057.3 25.6136 1056.19 25.6136C1055.25 25.6136 1054.43 25.8693 1053.73 26.3807C1053.04 26.8826 1052.5 27.6165 1052.11 28.5824C1051.73 29.5483 1051.53 30.7178 1051.53 32.0909C1051.53 33.483 1051.72 34.6667 1052.1 35.642C1052.49 36.6174 1053.03 37.3608 1053.73 37.8722C1054.43 38.3835 1055.25 38.6392 1056.19 38.6392C1056.88 38.6392 1057.5 38.4972 1058.05 38.2131C1058.61 37.929 1059.07 37.517 1059.43 36.9773C1059.8 36.428 1060.04 35.7699 1060.15 35.0028H1065.86C1065.77 36.6695 1065.32 38.1373 1064.5 39.4062C1063.7 40.6657 1062.58 41.6506 1061.16 42.3608C1059.74 43.071 1058.06 43.4261 1056.12 43.4261ZM1087.89 27.4034L1082.35 27.7443C1082.26 27.2708 1082.05 26.8447 1081.74 26.4659C1081.43 26.0777 1081.02 25.7699 1080.51 25.5426C1080 25.3059 1079.4 25.1875 1078.7 25.1875C1077.76 25.1875 1076.97 25.3864 1076.33 25.7841C1075.69 26.1723 1075.36 26.6932 1075.36 27.3466C1075.36 27.8674 1075.57 28.3078 1075.99 28.6676C1076.41 29.0275 1077.12 29.3163 1078.13 29.5341L1082.08 30.3295C1084.2 30.7652 1085.79 31.4659 1086.83 32.4318C1087.87 33.3977 1088.39 34.6667 1088.39 36.2386C1088.39 37.6686 1087.97 38.9233 1087.13 40.0028C1086.29 41.0824 1085.15 41.9252 1083.69 42.5312C1082.24 43.1278 1080.57 43.4261 1078.67 43.4261C1075.79 43.4261 1073.48 42.8248 1071.77 41.6222C1070.07 40.41 1069.07 38.7623 1068.77 36.679L1074.72 36.3665C1074.9 37.2472 1075.34 37.9195 1076.03 38.3835C1076.72 38.8381 1077.61 39.0653 1078.69 39.0653C1079.75 39.0653 1080.6 38.8617 1081.24 38.4545C1081.9 38.0379 1082.23 37.5028 1082.24 36.8494C1082.23 36.3002 1082 35.8504 1081.54 35.5C1081.09 35.1402 1080.39 34.8655 1079.44 34.6761L1075.66 33.9233C1073.53 33.4972 1071.95 32.7585 1070.9 31.7074C1069.87 30.6562 1069.36 29.3163 1069.36 27.6875C1069.36 26.286 1069.73 25.0786 1070.49 24.0653C1071.26 23.0521 1072.33 22.2708 1073.72 21.7216C1075.11 21.1723 1076.74 20.8977 1078.6 20.8977C1081.36 20.8977 1083.53 21.4801 1085.11 22.6449C1086.7 23.8097 1087.63 25.3958 1087.89 27.4034Z" fill="#5D5FEF"/>
<rect x="1226" y="6" width="139" height="57" fill="#84CFDF"/>
<rect x="1226" y="6" width="139" height="57" fill="#84CFDF"/>
<path d="M1244.37 47V17.9091H1250.52V41.929H1262.99V47H1244.37ZM1276.81 47.4261C1274.6 47.4261 1272.69 46.9574 1271.08 46.0199C1269.48 45.0729 1268.25 43.7566 1267.38 42.071C1266.5 40.3759 1266.07 38.411 1266.07 36.1761C1266.07 33.9223 1266.5 31.9527 1267.38 30.267C1268.25 28.572 1269.48 27.2557 1271.08 26.3182C1272.69 25.3712 1274.6 24.8977 1276.81 24.8977C1279.01 24.8977 1280.92 25.3712 1282.52 26.3182C1284.13 27.2557 1285.37 28.572 1286.24 30.267C1287.11 31.9527 1287.55 33.9223 1287.55 36.1761C1287.55 38.411 1287.11 40.3759 1286.24 42.071C1285.37 43.7566 1284.13 45.0729 1282.52 46.0199C1280.92 46.9574 1279.01 47.4261 1276.81 47.4261ZM1276.84 42.7386C1277.84 42.7386 1278.68 42.4545 1279.35 41.8864C1280.02 41.3087 1280.53 40.5227 1280.87 39.5284C1281.22 38.5341 1281.4 37.4025 1281.4 36.1335C1281.4 34.8646 1281.22 33.733 1280.87 32.7386C1280.53 31.7443 1280.02 30.9583 1279.35 30.3807C1278.68 29.803 1277.84 29.5142 1276.84 29.5142C1275.82 29.5142 1274.97 29.803 1274.28 30.3807C1273.6 30.9583 1273.08 31.7443 1272.73 32.7386C1272.39 33.733 1272.22 34.8646 1272.22 36.1335C1272.22 37.4025 1272.39 38.5341 1272.73 39.5284C1273.08 40.5227 1273.6 41.3087 1274.28 41.8864C1274.97 42.4545 1275.82 42.7386 1276.84 42.7386ZM1301.31 55.6364C1299.35 55.6364 1297.67 55.3665 1296.27 54.8267C1294.88 54.2964 1293.77 53.572 1292.94 52.6534C1292.12 51.7348 1291.59 50.7027 1291.34 49.5568L1296.94 48.804C1297.11 49.2396 1297.38 49.6468 1297.75 50.0256C1298.11 50.4044 1298.6 50.7074 1299.21 50.9347C1299.82 51.1714 1300.57 51.2898 1301.45 51.2898C1302.77 51.2898 1303.85 50.9678 1304.71 50.3239C1305.57 49.6894 1306 48.6241 1306 47.1278V43.1364H1305.74C1305.48 43.7424 1305.08 44.3153 1304.55 44.8551C1304.02 45.3949 1303.34 45.8352 1302.5 46.1761C1301.67 46.517 1300.68 46.6875 1299.52 46.6875C1297.88 46.6875 1296.39 46.3087 1295.05 45.5511C1293.71 44.7841 1292.65 43.6146 1291.85 42.0426C1291.06 40.4612 1290.67 38.4631 1290.67 36.0483C1290.67 33.5767 1291.07 31.5123 1291.88 29.8551C1292.68 28.1979 1293.75 26.9574 1295.09 26.1335C1296.43 25.3097 1297.91 24.8977 1299.51 24.8977C1300.73 24.8977 1301.75 25.1061 1302.57 25.5227C1303.4 25.9299 1304.06 26.4413 1304.56 27.0568C1305.07 27.6629 1305.47 28.2595 1305.74 28.8466H1305.97V25.1818H1311.98V47.2131C1311.98 49.0691 1311.52 50.6222 1310.61 51.8722C1309.71 53.1222 1308.45 54.0597 1306.84 54.6847C1305.24 55.3191 1303.39 55.6364 1301.31 55.6364ZM1301.44 42.142C1302.41 42.142 1303.24 41.9006 1303.91 41.4176C1304.59 40.9252 1305.11 40.2244 1305.47 39.3153C1305.84 38.3968 1306.03 37.2983 1306.03 36.0199C1306.03 34.7415 1305.85 33.6335 1305.49 32.696C1305.13 31.7491 1304.61 31.0152 1303.92 30.4943C1303.24 29.9735 1302.41 29.7131 1301.44 29.7131C1300.44 29.7131 1299.61 29.983 1298.92 30.5227C1298.24 31.053 1297.73 31.7917 1297.38 32.7386C1297.03 33.6856 1296.85 34.7794 1296.85 36.0199C1296.85 37.2794 1297.03 38.3684 1297.38 39.2869C1297.74 40.196 1298.25 40.9015 1298.92 41.4034C1299.61 41.8958 1300.44 42.142 1301.44 42.142ZM1316.79 47V25.1818H1322.84V47H1316.79ZM1319.83 22.3693C1318.93 22.3693 1318.16 22.071 1317.52 21.4744C1316.88 20.8684 1316.57 20.1439 1316.57 19.3011C1316.57 18.4678 1316.88 17.7528 1317.52 17.1562C1318.16 16.5502 1318.93 16.2472 1319.83 16.2472C1320.73 16.2472 1321.5 16.5502 1322.13 17.1562C1322.78 17.7528 1323.1 18.4678 1323.1 19.3011C1323.1 20.1439 1322.78 20.8684 1322.13 21.4744C1321.5 22.071 1320.73 22.3693 1319.83 22.3693ZM1333.74 34.3864V47H1327.69V25.1818H1333.46V29.0312H1333.71C1334.2 27.7623 1335.01 26.7585 1336.14 26.0199C1337.28 25.2718 1338.66 24.8977 1340.28 24.8977C1341.79 24.8977 1343.11 25.2292 1344.24 25.892C1345.37 26.5549 1346.24 27.5019 1346.87 28.733C1347.49 29.9545 1347.81 31.4129 1347.81 33.108V47H1341.75V34.1875C1341.76 32.8523 1341.42 31.8106 1340.73 31.0625C1340.04 30.3049 1339.09 29.9261 1337.88 29.9261C1337.06 29.9261 1336.34 30.1013 1335.72 30.4517C1335.1 30.8021 1334.62 31.3134 1334.27 31.9858C1333.93 32.6487 1333.75 33.4489 1333.74 34.3864Z" fill="#5D5FEF"/>
</svg>
